<svg xmlns="http://www.w3.org/2000/svg" width="62" height="47" viewBox="0 0 62 47">
    <g fill="none" fill-rule="evenodd">
        <path fill="#B28B67" d="M41.465 18.06c2.607 4.86 2.297 17.19-1.073 18.059-1.344.346-4.207-.503-7.12-2.259L35.1 46.8H24.3l3.717-17.33c-2.073-2.434-3.476-5.417-3.241-8.759.675-9.63 14.08-7.511 16.689-2.65z" transform="matrix(-1 0 0 1 61.2 0)"/>
        <path fill="#191847" d="M37.199 12.766c-1.476-.45-3.618-.602-4.52-.499.513-1.228.716-2.597.55-3.929-.16-1.295-.74-2.397-1.274-3.552-.247-.533-.526-1.062-.943-1.47-.424-.414-.962-.688-1.525-.819-.577-.134-1.18-.122-1.757-.001-.256.054-.485.17-.735.235-.257.067-.382-.094-.568-.255-.449-.389-1.107-.58-1.674-.65-.637-.077-1.298.02-1.906.229-.591.204-1.16.535-1.587 1.017-.19.215-.363.46-.475.729-.046.11-.054.176-.165.217-.102.037-.221.038-.327.074-1.02.345-1.891 1.133-2.366 2.145-.277.59-.408 1.629-.372 2.793.036 1.165 1.088 4.204 2.071 5.312.878.99 2.168 1.642 3.414 1.928-.827.945-1.377 2.125-1.784 3.326-.442 1.304-.716 2.66-.817 4.04-.096 1.312-.104 2.7.203 3.984.288 1.2.903 2.185 1.93 2.81.47.286.977.501 1.486.698.502.194 1.005.382 1.53.49.996.206 2.142.17 2.908-.621.276-.285.58-.644.782-.993.072-.125.116-.207.028-.33-.106-.147-.276-.26-.412-.374-.772-.655-1.25-1.529-1.37-2.568-.123-1.054.16-2.414 1.185-2.874 1.265-.568 2.658.084 3.782.691.478-1.686 1.46-3.205 2.998-3.978 1.701-.856 3.654-.956 5.403-1.69.456-.192.92-.41 1.255-.8.14-.162.305-.374.361-.589.074-.283-.109-.52-.25-.741-.748-1.17-3.584-3.535-5.06-3.985z" transform="matrix(-1 0 0 1 61.2 0)"/>
    </g>
</svg>
