<svg xmlns="http://www.w3.org/2000/svg" width="243" height="197" viewBox="0 0 243 197">
    <g fill="none" fill-rule="evenodd" transform="translate(0 -1)">
        <ellipse cx="126" cy="192" fill="#F0F0F0" rx="117" ry="6"/>
        <g>
            <g>
                <path fill="#B28B67" d="M41.465 18.06c2.607 4.86 2.297 17.19-1.073 18.059-1.344.346-4.207-.503-7.12-2.259L35.1 46.8H24.3l3.717-17.33c-2.073-2.434-3.476-5.417-3.241-8.759.675-9.63 14.08-7.511 16.689-2.65z" transform="matrix(-1 0 0 1 267.1 0) translate(36.9)"/>
                <path fill="#191847" d="M37.199 12.766c-1.476-.45-3.618-.602-4.52-.499.513-1.228.716-2.597.55-3.929-.16-1.295-.74-2.397-1.274-3.552-.247-.533-.526-1.062-.943-1.47-.424-.414-.962-.688-1.525-.819-.577-.134-1.18-.122-1.757-.001-.256.054-.485.17-.735.235-.257.067-.382-.094-.568-.255-.449-.389-1.107-.58-1.674-.65-.637-.077-1.298.02-1.906.229-.591.204-1.16.535-1.587 1.017-.19.215-.363.46-.475.729-.046.11-.054.176-.165.217-.102.037-.221.038-.327.074-1.02.345-1.891 1.133-2.366 2.145-.277.59-.408 1.629-.372 2.793.036 1.165 1.088 4.204 2.071 5.312.878.99 2.168 1.642 3.414 1.928-.827.945-1.377 2.125-1.784 3.326-.442 1.304-.716 2.66-.817 4.04-.096 1.312-.104 2.7.203 3.984.288 1.2.903 2.185 1.93 2.81.47.286.977.501 1.486.698.502.194 1.005.382 1.53.49.996.206 2.142.17 2.908-.621.276-.285.58-.644.782-.993.072-.125.116-.207.028-.33-.106-.147-.276-.26-.412-.374-.772-.655-1.25-1.529-1.37-2.568-.123-1.054.16-2.414 1.185-2.874 1.265-.568 2.658.084 3.782.691.478-1.686 1.46-3.205 2.998-3.978 1.701-.856 3.654-.956 5.403-1.69.456-.192.92-.41 1.255-.8.14-.162.305-.374.361-.589.074-.283-.109-.52-.25-.741-.748-1.17-3.584-3.535-5.06-3.985z" transform="matrix(-1 0 0 1 267.1 0) translate(36.9)"/>
            </g>
            <g>
                <path fill="#191847" d="M57.6 0L73.915 57.252 85.818 99.45 94.5 99.45 81.851 0z" transform="matrix(-1 0 0 1 267.1 0) translate(0 84.15)"/>
                <path fill="#2F3676" d="M53.237 0c-.377 29.508-1.664 45.603-2.06 48.284-.397 2.681-6.388 19.736-17.973 51.166h8.994c14.75-30.151 22.983-47.207 24.7-51.166C68.616 44.324 73.916 28.23 81.9 0H53.237z" transform="matrix(-1 0 0 1 267.1 0) translate(0 84.15)"/>
                <path fill="#191847" d="M32.4 107.55l.45-9.45h9.45c4.48 3.15 10.33 5.7 17.55 7.65v1.8h-17.1l-5.85-.9v.9h-4.5zM84.6 107.55l.45-9.45h9.45c4.48 3.15 10.33 5.7 17.55 7.65v1.8h-17.1l-5.85-.9v.9h-4.5z" transform="matrix(-1 0 0 1 267.1 0) translate(0 84.15)"/>
            </g>
            <g>
                <path fill="#997659" d="M73.15 20.884c1.95-.402 6.709-3.941 7.529-3.223 1.213 1.064.131 4.328-1.143 5.952-2.382 3.035-4.354 4.073-9.229 5.432-2.548.71-5.304 2.135-8.266 4.273l-.391-6.885 6.86-3.77c.964-3.662 2.114-5.505 3.453-5.528 1.029-.479-.762 4.15 1.187 3.749zM61.342 5.194c-1.26 2.236-2.485 4.644-1.843 5.333.642.689 2.242-.273 3.008.871.51.763-2.224 1.969-8.202 3.616l-11.35 10.392-5.768-6.19 15.62-8.556c2.597-3.084 5.156-5.48 7.677-7.186.77-.322 2.117-.516.858 1.72z" transform="matrix(-1 0 0 1 267.1 0) translate(44.1 36.9)"/>
                <path fill="#B03315" d="M29.58 17.31c5.471-.058 12.767-1.214 20.551-6.155l3.057 6.817c-5.37 5.33-12.92 9.707-19.52 9.522-5.203-.146-7.862-6.439-4.088-10.185z" transform="matrix(-1 0 0 1 267.1 0) translate(44.1 36.9)"/>
                <path fill="#FF4518" d="M29.945 0c.689 8.851 4.156 18.606 7.002 28.243 5.807 1.448 15.547-.26 29.22-5.125 3.39 7.016 4.958 12.017 4.702 15.005-11.73 6.127-21.783 8.858-30.065 9.038.267 4.912-.331 9.589-2.34 13.862-4.131 8.783-28.319.649-36.451 2.25-5.093-16.54 4.754-23.262 4.762-33.845C6.784 17.84 16.089 0 17.459 0z" transform="matrix(-1 0 0 1 267.1 0) translate(44.1 36.9)"/>
            </g>
        </g>
        <g>
            <path fill="#B28B67" d="M41.465 18.06c2.607 4.86 2.297 17.19-1.073 18.059-1.344.346-4.207-.503-7.12-2.259L35.1 46.8H24.3l3.717-17.33c-2.073-2.434-3.476-5.417-3.241-8.759.675-9.63 14.08-7.511 16.689-2.65z" transform="translate(25.2)"/>
            <path fill="#191847" d="M25.575 18.247c2.46-10.12 16.396-3.838 19.077-5.545.586 3.673-1.304 6.635-7.948 6.063-1.468.82-2.51 2.356-3.767 4.37-.305-.119-.638-.185-.987-.185-1.491 0-2.7 1.209-2.7 2.7 0 .757.311 1.441.813 1.931-.625.883-1.325 1.804-2.127 2.754-2.953-1.772-5.16-6.89-2.476-11.88z" transform="translate(25.2)"/>
        </g>
        <g>
            <path fill="#997659" d="M19.8 0L36.284 56.802 44.037 99.45 51.819 99.45 44.051 0z" transform="translate(26.1 84.15)"/>
            <path fill="#B28B67" d="M12.392 0c1.15 29.508.697 45.603.44 48.284-.258 2.681-1.72 20.636-11.678 52.066h8.093C22.436 70.199 27.04 52.243 28.553 48.284 30.065 44.324 34.533 28.23 41.055 0H12.392z" transform="translate(26.1 84.15)"/>
            <path fill="#0C6656" d="M19.446 0c4.288 19.546 11.704 50.746 22.248 93.6h11.382c.84-43.986-2.736-72.936-8.929-93.6h-24.7z" transform="translate(26.1 84.15)"/>
            <path fill="#17A48B" d="M12.334 0C13.461 29.508 10.542 58.58 1.5 94.06h12.144C26.855 64.357 36.325 35.43 42.798 0H12.334z" transform="translate(26.1 84.15)"/>
            <path fill="#191847" d="M0 106.2L.447 99c2.614.765 5.89.465 9.825-.9 4.23 2.997 9.558 5.044 15.98 6.14.49.083.82.548.736 1.038-.006.032-.013.064-.022.095l-.617 2.177H.893L0 106.2zM42.3 106.2l.447-7.2c2.614.765 5.89.465 9.825-.9 4.23 2.997 9.558 5.044 15.98 6.14.49.083.82.548.736 1.038-.006.032-.013.064-.022.095l-.617 2.177H43.193l-.893-1.35z" transform="translate(26.1 84.15)"/>
        </g>
        <g>
            <path fill="#B28B67" d="M22.35 68.291c-6.472 17.48-10.267 27.043-11.386 28.687-.82 1.205-6.098 4.476-9.693 6.263-1.443.718-1.06 1.95-.607 2.326 3.693 3.062 6.77.487 10.497-.65 4.085-1.244 3.053 3.747 6.284 2.814-.64-2.223-2.275-6.421-.884-8.832.617-1.071 5.204-10.888 13.76-29.45l-7.97-1.158z" transform="translate(0 3.5)"/>
            <g>
                <path fill="#B28B67" d="M33.02 39.587l13.585 11.516c3.81 1.32 6.964 2.85 9.46 4.593.577.604 1.241 1.791-1.298 1.417-2.539-.375-5.226-.655-5.64.19-.412.847 1.06 1.996.265 3.121-.53.75-2.634-1.37-6.315-6.362l-13.769-6.871 3.713-7.604z" transform="translate(0 3.5) rotate(-50 68.903 -23.332)"/>
                <path fill="#C5CFD6" d="M4.822 2.112L9.761.48c6.7 16.735 16.69 32.928 33.384 46.605l-4.128 7.122C24.346 45.564 10.457 38.85 4.822 25.882c-1.891-4.352-.154-18.566 0-23.77z" transform="translate(0 3.5) rotate(-50 68.903 -23.332)"/>
            </g>
            <path fill="#323337" d="M38.7 82.9c14.147 1.5 25.283 1.5 33.406 0 1.007-.186 1.166-1.87.699-3.015-7.269-17.809-12.253-33.349-12.253-45.719-1.334.673-3.668.773-7.002.302C44.589 47.216 40.47 61.843 38.7 82.9z" transform="translate(0 3.5)"/>
            <path fill="#DDE3E9" d="M51.335 33.167l-.013.233h3.735c.86 5.063 3.557 72.99 11.826 96.33l.253.693H21.323c.994-20.754 8.828-45.684 16.765-66.545-7.018 6.421-13.135 17.303-18.35 32.645l-8.581-2.203c6.38-27.493 19.498-47.7 39.353-60.623l.13-.297h.33l.365-.233z" transform="translate(0 3.5)"/>
        </g>
    </g>
</svg>
