<svg xmlns="http://www.w3.org/2000/svg" width="140" height="27" viewBox="0 0 140 27">
    <g fill="none" fill-rule="evenodd">
        <path fill="#F2623C" d="M49.498 11.58L45.845 18.965 44.046 18.965 40.412 11.58 40.412 20.086 37.396 20.086 37.396 6.573 41.474 6.573 44.954 13.997 48.454 6.573 52.515 6.573 52.515 20.086 49.498 20.086 49.498 11.58M61.774 12.411c-.399-.335-.886-.502-1.46-.502s-1.099.174-1.575.522c-.477.348-.753.818-.832 1.41h4.563c-.065-.618-.297-1.094-.696-1.43zm2.785 6.168c-1.174 1.108-2.55 1.662-4.128 1.662-1.58 0-2.884-.486-3.916-1.46-1.03-.973-1.546-2.278-1.546-3.914 0-1.637.525-2.94 1.575-3.906 1.05-.966 2.292-1.45 3.723-1.45 1.43 0 2.645.432 3.644 1.296.998.863 1.498 2.05 1.498 3.557v1.547h-7.578c.089.567.386 1.03.888 1.391.504.361 1.07.542 1.701.542 1.02 0 1.856-.341 2.515-1.025l1.624 1.76zM69.837 14.905c0 .838.25 1.524.753 2.06.502.534 1.089.801 1.76.801.669 0 1.24-.267 1.71-.802s.706-1.224.706-2.068c0-.844-.235-1.547-.706-2.108-.47-.56-1.047-.84-1.73-.84-.684 0-1.27.283-1.76.85s-.733 1.27-.733 2.107zm1.826 5.336c-1.23 0-2.33-.522-3.296-1.566-.967-1.044-1.45-2.34-1.45-3.886 0-1.546.47-2.813 1.41-3.799.942-.986 2.044-1.479 3.307-1.479s2.294.445 3.093 1.334V5.741h2.9v14.345h-2.9v-1.372c-.812 1.018-1.833 1.527-3.064 1.527zM80.372 20.086h2.9v-10.4h-2.9v10.4zm.242-11.725c-.328-.329-.492-.731-.492-1.208s.164-.88.492-1.209c.329-.328.731-.493 1.208-.493.476 0 .88.165 1.209.493.328.33.492.732.492 1.209 0 .477-.164.88-.492 1.208-.329.329-.733.493-1.209.493-.477 0-.88-.164-1.208-.493z"/>
        <path fill="#3EB49D" d="M89.469 9.27c-.29.238-.436.554-.436.947 0 .393.178.706.532.938.354.232 1.172.506 2.455.821 1.282.316 2.278.79 2.987 1.421.708.632 1.064 1.554 1.064 2.765 0 1.212-.456 2.194-1.363 2.948-.909.754-2.105 1.131-3.587 1.131-2.139 0-4.067-.793-5.78-2.378l1.797-2.204c1.457 1.276 2.804 1.914 4.04 1.914.555 0 .99-.119 1.306-.357.316-.239.474-.561.474-.967 0-.406-.167-.728-.504-.967-.334-.238-.997-.48-1.99-.725-1.572-.373-2.724-.86-3.451-1.46-.728-.599-1.092-1.54-1.092-2.822s.46-2.272 1.382-2.968c.92-.696 2.072-1.044 3.45-1.044.903 0 1.804.155 2.707.464.903.31 1.689.748 2.36 1.315l-1.528 2.204c-1.173-.89-2.386-1.334-3.635-1.334-.502 0-.898.12-1.188.358M101.252 14.48v5.606h-2.901V5.741h2.901v5.104c.875-.889 1.858-1.334 2.947-1.334 1.09 0 2.008.387 2.756 1.16.748.774 1.12 1.805 1.12 3.094v6.321h-2.9v-5.683c0-1.598-.586-2.398-1.758-2.398-.58 0-1.086.21-1.519.629-.431.419-.646 1.034-.646 1.846M116.621 16.123v-.502h-1.817c-1.16 0-1.741.36-1.741 1.082 0 .374.138.66.416.86.276.2.674.3 1.19.3.514 0 .968-.157 1.361-.473.395-.316.591-.738.591-1.267zm2.919 3.963h-2.725V18.83c-.75.94-1.673 1.411-2.776 1.411-1.102 0-2.026-.319-2.774-.957-.747-.638-1.12-1.488-1.12-2.552 0-1.063.385-1.859 1.159-2.387.774-.529 1.83-.793 3.171-.793h2.165v-.058c0-1.108-.587-1.663-1.76-1.663-.501 0-1.034.1-1.594.3-.56.2-1.035.448-1.42.744L110.57 11c1.366-.992 2.926-1.489 4.677-1.489 1.264 0 2.295.316 3.095.948.798.631 1.198 1.63 1.198 2.996v6.631zM127.66 12.237c-.864 0-1.509.307-1.934.919-.425.612-.637 1.42-.637 2.426v4.504h-2.9v-10.4h2.9v1.372c.373-.425.841-.786 1.401-1.083.56-.296 1.13-.45 1.71-.464l.02 2.726h-.56M136.36 12.411c-.4-.335-.886-.502-1.46-.502s-1.1.174-1.575.522c-.478.348-.754.818-.832 1.41h4.562c-.065-.618-.296-1.094-.695-1.43zm2.784 6.168c-1.174 1.108-2.55 1.662-4.128 1.662-1.58 0-2.884-.486-3.916-1.46-1.03-.973-1.546-2.278-1.546-3.914 0-1.637.525-2.94 1.575-3.906 1.05-.966 2.292-1.45 3.723-1.45 1.43 0 2.645.432 3.644 1.296.998.863 1.499 2.05 1.499 3.557v1.547h-7.58c.091.567.388 1.03.89 1.391.503.361 1.07.542 1.7.542 1.02 0 1.857-.341 2.515-1.025l1.624 1.76zM11.89 16.48l-2.374 2.374c-.39.39-.61.918-.61 1.47v4.317c0 1.148.931 2.079 2.08 2.079h4.748c1.148 0 2.08-.931 2.08-2.08v-4.316c0-.552-.22-1.08-.61-1.47L14.83 16.48c-.812-.812-2.128-.812-2.94 0M14.83 10.24l2.374-2.374c.39-.39.61-.918.61-1.47V2.08C17.813.931 16.881 0 15.733 0h-4.748c-1.149 0-2.08.93-2.08 2.08v4.316c0 .551.22 1.08.61 1.47l2.374 2.374c.812.812 2.128.812 2.94 0"/>
        <path fill="#F2623C" d="M16.48 14.83l2.374 2.374c.39.39.918.61 1.47.61h4.316c1.149 0 2.08-.932 2.08-2.08v-4.748c0-1.148-.931-2.08-2.08-2.08h-4.316c-.552 0-1.08.22-1.47.61L16.48 11.89c-.812.812-.812 2.128 0 2.94M10.24 11.89L7.866 9.516c-.39-.39-.918-.61-1.47-.61H2.079C.931 8.907 0 9.839 0 10.987v4.748c0 1.148.93 2.08 2.08 2.08h4.316c.551 0 1.08-.22 1.47-.61l2.374-2.374c.812-.812.812-2.128 0-2.94"/>
    </g>
</svg>
