<svg xmlns="http://www.w3.org/2000/svg" width="62" height="47" viewBox="0 0 62 47">
    <g fill="none" fill-rule="evenodd">
        <path fill="#B28B67" d="M41.465 18.06c2.607 4.86 2.297 17.19-1.073 18.059-1.344.346-4.207-.503-7.12-2.259L35.1 46.8H24.3l3.717-17.33c-2.073-2.434-3.476-5.417-3.241-8.759.675-9.63 14.08-7.511 16.689-2.65z" transform="translate(.2)"/>
        <path fill="#191847" d="M25.575 18.247c2.46-10.12 16.396-3.838 19.077-5.545.586 3.673-1.304 6.635-7.948 6.063-1.468.82-2.51 2.356-3.767 4.37-.305-.119-.638-.185-.987-.185-1.491 0-2.7 1.209-2.7 2.7 0 .757.311 1.441.813 1.931-.625.883-1.325 1.804-2.127 2.754-2.953-1.772-5.16-6.89-2.476-11.88z" transform="translate(.2)"/>
    </g>
</svg>
