<svg xmlns="http://www.w3.org/2000/svg" width="136" height="108" viewBox="0 0 136 108">
    <g fill="none" fill-rule="evenodd">
        <path fill="#191847" d="M57.6 0L73.915 57.252 85.818 99.45 94.5 99.45 81.851 0z" transform="matrix(-1 0 0 1 135.1 .15)"/>
        <path fill="#2F3676" d="M53.237 0c-.377 29.508-1.664 45.603-2.06 48.284-.397 2.681-6.388 19.736-17.973 51.166h8.994c14.75-30.151 22.983-47.207 24.7-51.166C68.616 44.324 73.916 28.23 81.9 0H53.237z" transform="matrix(-1 0 0 1 135.1 .15)"/>
        <path fill="#191847" d="M32.4 107.55l.45-9.45h9.45c4.48 3.15 10.33 5.7 17.55 7.65v1.8h-17.1l-5.85-.9v.9h-4.5zM84.6 107.55l.45-9.45h9.45c4.48 3.15 10.33 5.7 17.55 7.65v1.8h-17.1l-5.85-.9v.9h-4.5z" transform="matrix(-1 0 0 1 135.1 .15)"/>
    </g>
</svg>
