<svg xmlns="http://www.w3.org/2000/svg" width="24" height="24" viewBox="0 0 24 24">
    <g fill="#6D757D">
        <path d="M9.012 3.871c.624-.545 1.571-.482 2.117.141.511.585.488 1.454-.03 2.01l-.111.107L5.277 12l5.71 5.871c.585.512.677 1.376.237 1.996l-.095.12c-.512.585-1.376.677-1.996.237l-.12-.095-7-7c-.681-.582-.681-1.53-.114-2.148l.113-.11 7-7z"/>
        <path d="M21.497 10.5c.828 0 1.5.672 1.5 1.5 0 .78-.595 1.42-1.356 1.493l-.144.007h-18c-.829 0-1.5-.672-1.5-1.5 0-.78.594-1.42 1.355-1.493l.145-.007h18z"/>
    </g>
</svg>
