<svg xmlns="http://www.w3.org/2000/svg" width="80" height="61" viewBox="0 0 80 61">
    <path fill="#4A5A68" fill-rule="evenodd" d="M39.82 17.667c.843 0 1.685.156 2.483.468l15.528 6.073c.68.266 1.298.635 1.842 1.083l.347-.002c.977 0 2.44.038 4.043.215 1.604.177 3.347.488 4.904 1.06 1.037.384 1.997.882 2.772 1.572.442.393.822.853 1.1 1.385.318.605.496 1.303.494 2.055 0 .921-.257 1.812-.674 2.651-.418.84-.997 1.635-1.675 2.393-1.355 1.512-3.111 2.879-4.856 4.05-1.996 1.338-3.979 2.413-5.314 3.09-.746 1.004-1.766 1.809-2.983 2.284l-8.986 3.515c-2.9 1.135-5.963 1.702-9.024 1.702-3.062 0-6.124-.567-9.025-1.702l-8.986-3.515c-1.278-.5-2.34-1.36-3.094-2.434-.423-.22-.895-.472-1.399-.752-2.008-1.118-4.532-2.68-6.63-4.51-1.396-1.224-2.612-2.562-3.346-4.03-.417-.839-.674-1.73-.674-2.651 0-.564.098-1.098.283-1.585.184-.487.453-.926.78-1.313.656-.773 1.53-1.342 2.496-1.783 1.936-.877 4.285-1.265 6.325-1.454 1.3-.118 2.47-.15 3.314-.152.569-.487 1.221-.889 1.945-1.172l15.53-6.073c.797-.312 1.639-.468 2.48-.468zm-.114 8.784c-.814 0-1.629.047-2.44.135l-16.452 6.14V39.7c0 1.433.877 2.718 2.211 3.24l8.986 3.515c2.51.981 5.16 1.472 7.81 1.472 2.65 0 5.299-.49 7.81-1.472l8.985-3.515c1.334-.522 2.212-1.807 2.212-3.24v-6.33L42.35 26.61c-.878-.104-1.76-.158-2.644-.158zm21.435.523c.652 1.053 1.021 2.284 1.021 3.58v9.145c0 .53-.06 1.048-.178 1.548 1.93-1.078 4.317-2.572 6.232-4.246 1.301-1.134 2.375-2.354 2.95-3.517.33-.665.5-1.301.5-1.908 0-.373-.063-.697-.175-.994-.112-.297-.276-.569-.494-.827-.434-.516-1.096-.971-1.914-1.342-1.633-.748-3.847-1.137-5.784-1.31-.781-.072-1.517-.11-2.158-.13zm-42.708.106c-.7.029-1.49.08-2.313.171-1.519.166-3.15.467-4.51.969-.907.332-1.687.756-2.24 1.25-.316.283-.56.586-.731.914-.195.375-.304.785-.305 1.283 0 .588.16 1.203.47 1.846.31.642.77 1.304 1.342 1.958 1.142 1.311 2.723 2.585 4.341 3.692 1.072.735 2.156 1.394 3.145 1.958-.098-.462-.153-.937-.153-1.422v-9.146c0-1.25.344-2.443.954-3.473zm20.922 1.375l.467.001c.936.005 1.87.061 2.8.157l.157.017.11.054c1.583.778 3.152 1.586 4.699 2.44.771.433 1.546.858 2.306 1.313.765.445 1.52.914 2.265 1.404-.856-.25-1.701-.522-2.536-.817-.84-.284-1.665-.599-2.494-.907-1.6-.604-3.18-1.255-4.748-1.932-.854-.048-1.71-.069-2.564-.07-.446.003-.892.011-1.338.023-.41.01-.82.035-1.232.057-1.843.698-3.701 1.36-5.58 1.972-.964.307-1.928.614-2.903.894-.974.283-1.953.551-2.948.78.882-.514 1.78-.99 2.684-1.448.902-.464 1.816-.9 2.729-1.335 1.832-.859 3.683-1.667 5.551-2.435l.101-.042.139-.013c.465-.046.933-.068 1.4-.09.467-.02.935-.027 1.402-.022zm.466-7.454c-.43 0-.86.08-1.267.24l-15.53 6.073c-1.333.52-2.21 1.807-2.21 3.24v.392l16.072-5.998.102-.011c.903-.102 1.81-.153 2.718-.153.987 0 1.973.06 2.953.18l.111.014 16.058 6.58v-1.005c0-1.432-.878-2.718-2.212-3.24L41.088 21.24c-.408-.16-.837-.239-1.267-.239z"/>
</svg>
