<svg xmlns="http://www.w3.org/2000/svg" width="118" height="79" viewBox="0 0 118 79">
    <path fill="#6D757D" fill-rule="evenodd" d="M32.372 18.002c-1.535.07-2.742 1.332-2.742 2.868v2.218-.004c-1.047-.921-2.2-1.71-3.434-2.359-3.058-1.598-6.765-1.312-9.543.742-2.773 2.055-4.133 5.516-3.5 8.91 1.73 9.239 7.985 16.988 16.641 20.633.637 3.27 3.02 5.922 6.203 6.903 14.875 4.582 30.79 4.582 45.664 0 3.184-.98 5.57-3.633 6.203-6.903 8.66-3.644 14.914-11.395 16.645-20.633.641-3.398-.722-6.859-3.5-8.914-2.78-2.054-6.488-2.343-9.55-.738-1.235.648-2.383 1.438-3.426 2.36v-2.22.005c0-.887-.414-1.727-1.114-2.27-.703-.543-1.617-.73-2.476-.508-16.793 4.375-34.43 4.375-51.223 0-.277-.07-.563-.101-.848-.09zm-10.484 3.332l-.004.004c1.238-.023 2.46.262 3.559.836 1.566.82 2.98 1.902 4.187 3.195v23.777c-7.754-3.574-13.293-10.68-14.867-19.07-.398-2.136.164-4.335 1.535-6.023 1.371-1.684 3.414-2.676 5.586-2.715l.004-.004zm73.438.004l-.004.004c2.254-.101 4.426.832 5.902 2.535 1.477 1.704 2.098 3.985 1.68 6.2-1.574 8.39-7.117 15.5-14.87 19.07V25.366v.003c1.202-1.293 2.62-2.375 4.187-3.195.96-.504 2.02-.785 3.101-.832l.004-.004zm-39.973 8.594h6.953v6.434h6.43v6.945l-6.43.004v6.433l-6.953-.003V43.31h-6.426v-6.945h6.426v-6.434z"/>
</svg>
